<svg xmlns="http://www.w3.org/2000/svg" width="78.2" height="61.988" viewBox="0 0 78.2 61.988"><defs><style>.a{fill:#7b0020;}.b{fill:#930028;}.c{fill:#c50037;}.d{fill:#fff;}.e{fill:#201e1b;}.f{fill:#72726d;}</style></defs><g transform="translate(-159.498 -265.069)"><g transform="translate(159.498 265.069)"><path class="a" d="M324.152,332.382H306.215V350.31Z" transform="translate(-267.118 -314.445)"/><path class="b" d="M306.217,265.069v17.937h17.937Z" transform="translate(-267.12 -265.069)"/><path class="c" d="M238.941,283.007h17.927V265.069Z" transform="translate(-217.771 -265.069)"/><path class="b" d="M256.868,350.31V332.382H238.941Z" transform="translate(-217.771 -314.445)"/><path class="d" d="M297.137,346.69l-5.193-5.472-5.184,5.472,5.184-4.4Z" transform="translate(-252.847 -320.927)"/><path class="d" d="M299.461,355.535l-3.866-4.071-3.859,4.071,3.859-3.4Z" transform="translate(-256.498 -328.442)"/><path class="d" d="M301.776,364.37,299.24,361.7l-2.533,2.668,2.533-2.406Z" transform="translate(-260.144 -335.952)"/><path class="d" d="M304.11,373.208l-1.213-1.271-1.2,1.271,1.2-1.143Z" transform="translate(-263.801 -343.46)"/><path class="d" d="M294.8,321l-5.6-6.508L294.8,308l-6.522,5.577L281.765,308l5.592,6.5-5.592,6.5,6.516-5.59Z" transform="translate(-249.183 -296.558)"/><path class="d" d="M263.084,329.1l-1.248-1.18,1.122,1.193-1.122,1.183Z" transform="translate(-234.566 -311.174)"/><path class="d" d="M269.474,325.446l-2.635-2.508,2.373,2.522-2.374,2.511Z" transform="translate(-238.234 -307.517)"/><path class="d" d="M275.85,321.788l-4.041-3.837,3.365,3.846-3.365,3.845Z" transform="translate(-241.88 -303.859)"/><path class="d" d="M282.227,318.138l-5.433-5.163,4.359,5.172-4.359,5.171Z" transform="translate(-245.537 -300.209)"/><path class="d" d="M345.955,329.118,347.2,330.3l-1.122-1.183,1.122-1.192Z" transform="translate(-296.268 -311.176)"/><path class="d" d="M335.726,325.461l2.634,2.512-2.37-2.516,2.373-2.517Z" transform="translate(-288.765 -307.519)"/><path class="d" d="M325.509,321.793l4.034,3.847-3.366-3.845,3.366-3.846Z" transform="translate(-281.271 -303.857)"/><path class="d" d="M320.714,312.975l-5.438,5.177,5.438,5.167-4.37-5.167Z" transform="translate(-273.765 -300.209)"/><path class="d" d="M297.137,303.009l-5.193,4.4-5.184-4.4,5.184,5.472Z" transform="translate(-252.847 -292.899)"/><path class="d" d="M299.461,298.023l-3.866,3.4-3.859-3.4L295.6,302.1Z" transform="translate(-256.498 -289.242)"/><path class="d" d="M301.779,293.031l-2.536,2.409-2.533-2.409,2.533,2.675Z" transform="translate(-260.146 -285.58)"/><path class="d" d="M304.106,288.067,302.9,289.21l-1.2-1.143,1.2,1.267Z" transform="translate(-263.803 -281.939)"/><path class="e" d="M162.911,417.084H159.5v10.66h1.927v-4.41h1.3c2.7,0,3.666-1.6,3.666-3.083,0-1.531-.911-3.167-3.479-3.167m-.056,4.469h-1.43v-2.69h1.486c1.312,0,1.5.831,1.5,1.327,0,.863-.572,1.363-1.559,1.363m7.378-4.529-4.58,10.719h2l1.285-3.007h4.033l1.361,3.007h2l-4.766-10.719Zm-.529,5.94,1.185-2.876,1.278,2.876Zm9.377-5.88h-1.93v10.66h6.534V425.96h-4.6Zm10.961,4.051-3.263-4.051h-1.721v10.66h1.931V420.2l2.823,3.555h.463L193.1,420.2v7.545h1.919v-10.66h-1.7Zm17.151.39h-5.24v-4.441h-1.94v10.66h1.94V423.3h5.24v4.442h1.932v-10.66h-1.932Zm6.268,6.219v-10.66h-1.929v10.66Zm4.6-10.66h-1.934v10.66h6.537V425.96h-4.6Zm7.925,0H224.05v10.66h6.536V425.96h-4.6Zm8.979,4.3c-.9-.51-1.67-.951-1.67-1.674,0-.572.559-.979,1.38-.979a3.21,3.21,0,0,1,2.23,1l.393.366v-2.321l-.106-.069a4.337,4.337,0,0,0-2.4-.758c-2.022,0-3.324,1.162-3.324,2.952,0,1.63,1.352,2.448,2.542,3.17,1,.6,1.865,1.128,1.865,1.976,0,.407-.387,1.05-1.424,1.05a3.2,3.2,0,0,1-2.51-1.391l-.415-.526v2.638l.092.073a4.761,4.761,0,0,0,2.993.988,2.944,2.944,0,0,0,3.085-3c0-1.963-1.511-2.818-2.732-3.5" transform="translate(-159.498 -376.476)"/><path class="f" d="M161.594,477.271h-2.1V482.6h2.108a2.68,2.68,0,0,0,2.817-2.66,2.627,2.627,0,0,0-2.829-2.665m-.082,4.428h-1.04v-3.525h1a1.721,1.721,0,0,1,1.947,1.762,1.741,1.741,0,0,1-1.91,1.763m6.641-1.336h2.079v-.9h-2.079v-1.293h2.152v-.9h-3.13V482.6h3.2v-.9h-2.221Zm7.413.288-1.44-3.379h-1l2.3,5.376h.316L178,477.271h-1Zm5.937-.288h2.076v-.9H181.5v-1.293h2.154v-.9h-3.136V482.6h3.2v-.9H181.5Zm6.255-3.092h-.974V482.6h3.267v-.9h-2.293Zm7.156-.066a2.733,2.733,0,1,0,2.854,2.731,2.7,2.7,0,0,0-2.854-2.731m0,4.544a1.815,1.815,0,1,1,1.858-1.813,1.771,1.771,0,0,1-1.858,1.813m7.185-4.478h-1.7V482.6h.973v-2.19h.636c1.353,0,1.834-.8,1.834-1.552a1.541,1.541,0,0,0-1.744-1.582m-.021,2.227h-.706v-1.324h.727c.646,0,.747.409.747.648,0,.436-.283.676-.769.676m6.8-.211-1.628-2.016h-.861V482.6h.978v-3.742l1.393,1.759H209l1.4-1.759V482.6h.978v-5.324h-.859Zm6.4,1.076h2.076v-.9h-2.076v-1.293h2.157v-.9h-3.141V482.6h3.2v-.9h-2.219Zm9.094.635-3.272-3.727h-.755V482.6h.935v-3.7l3.217,3.7h.8v-5.324h-.929Zm3.32-2.824h1.758V482.6h.975v-4.421h1.76v-.9h-4.494Zm8.645,1.239c-.446-.252-.835-.472-.835-.826,0-.286.288-.48.685-.48a1.587,1.587,0,0,1,1.1.493l.209.2v-1.178l-.05-.035a2.2,2.2,0,0,0-1.205-.378,1.489,1.489,0,0,0-1.661,1.476c0,.819.671,1.23,1.274,1.588.488.3.92.558.92.98,0,.2-.193.516-.707.516a1.623,1.623,0,0,1-1.242-.689l-.214-.283v1.342l.041.04a2.38,2.38,0,0,0,1.5.49,1.468,1.468,0,0,0,1.545-1.5c0-.982-.758-1.408-1.362-1.752" transform="translate(-159.498 -420.676)"/></g></g></svg>